<svg width="16" height="16" viewBox="0 0 16 16" fill="none" xmlns="http://www.w3.org/2000/svg">
 <path d="M7.99999 3.625C7.5 2.875 6.08479 1.75 4.5 1.75C2.25 1.75 -0.749985 6 3.37502 9.875C6.2125 12.5405 7.49999 13.75 8 14.5C8.49999 13.75 9.89249 12.4542 12.5625 9.875C16.8327 5.75 13.75 1.75 11.5 1.75C10 1.75 8.5 2.875 7.99999 3.625Z" fill="#DE5833"/>
 <path fill-rule="evenodd" clip-rule="evenodd" d="M7.16914 13.518C6.42623 12.7414 5.23284 11.6203 3.37492 9.875C-0.750087 6 2.2499 1.75 4.4999 1.75C5.50153 1.75 6.43543 2.1994 7.11333 2.71948C7.50801 3.02227 7.81591 3.34902 7.99989 3.625C8.18187 3.35204 8.4963 3.02941 8.89498 2.72942C9.59174 2.20513 10.5458 1.75 11.4999 1.75C13.7499 1.75 16.8326 5.75 12.5624 9.875C12.1764 10.2478 11.8172 10.5939 11.4834 10.9153C10.292 12.0628 9.4259 12.8969 8.83236 13.519C8.44205 13.9281 8.16958 14.2455 7.9999 14.5C7.82728 14.2411 7.56082 13.9274 7.16914 13.518ZM8.00926 1.8343C8.23506 1.65518 8.47849 1.48636 8.73178 1.33438C9.47891 0.886106 10.4519 0.5 11.4999 0.5C13.2838 0.5 15.012 1.96856 15.659 3.86126C16.3617 5.91664 15.8484 8.43868 13.4309 10.774C13.0394 11.1522 12.6771 11.5011 12.3419 11.8239C11.5256 12.6102 10.8704 13.2412 10.3487 13.7599C9.59137 14.5129 9.20927 14.9394 9.03997 15.1934C8.80814 15.5411 8.41785 15.75 7.99991 15.75C7.58197 15.75 7.19168 15.5411 6.95984 15.1934C6.78948 14.9379 6.42936 14.5291 5.68596 13.7955C4.96056 13.0797 3.94303 12.1237 2.51907 10.7861C0.138122 8.54941 -0.324272 6.01971 0.360927 3.96409C0.690544 2.97524 1.27618 2.13254 1.97934 1.52726C2.66915 0.933458 3.55691 0.5 4.4999 0.5C5.58337 0.5 6.55731 0.881153 7.30792 1.33929C7.55683 1.49121 7.79232 1.65839 8.00926 1.8343Z" fill="#9A3216"/>
</svg>
